<?xml version="1.0" encoding="utf-8"?>
<!-- Generator: Adobe Illustrator 23.0.5, SVG Export Plug-In . SVG Version: 6.00 Build 0)  -->
<svg version="1.1" id="Слой_1" xmlns="http://www.w3.org/2000/svg" xmlns:xlink="http://www.w3.org/1999/xlink" x="0px" y="0px"
	 viewBox="0 0 1000 1000" style="enable-background:new 0 0 1000 1000;" xml:space="preserve">
<style type="text/css">
	.st0{fill:#ABABAB;}
</style>
<path class="st0" d="M990,784c0,13-2,29-7,49s-9,36-15,48c-9,23-38,48-85,74c-73.2,41.5-161.5,46.7-239,14
	c-24.1-8.7-48.1-17.7-72-27c-46-16-86-35-122-58c-60-36-121-86-184-150c-64-63-114-124-150-184c-22-36-42-76-58-122l-12-34
	c-8.6-23.9-16.9-47.9-25-72c-7-24.7-10.7-50.3-11-76c0-43,12-86,36-129c26-47,50-76,73-85c35.5-14.5,73.7-21.3,112-20
	c8,3,20,20,37,53c15.9,26.9,30.9,54.2,45,82c15.4,26.9,31.8,53.2,49,79c3,7,5,13,5,20c0,9-7,21-20,35s-28,26-43,38
	c-16,12-30,24-44,37c-13,13-19,24-19,32l3,16c4.2,10.9,9.5,21.3,16,31l8,13c35,63,75,118,121,163c64.5,63,140.1,113.5,223,149
	c9,0,19-7,32-20s26-28,37-43c12-16,25-30,39-44s25-19,34-19c7,0,13,1,20,5c7,3,15,8,25,15l17,12l37,21l45,25l37,21
	c33,16,50,28,53,37L990,784z"/>
</svg>
